<svg width="64" height="64" viewBox="0 0 64 64" fill="none" xmlns="http://www.w3.org/2000/svg">
<path d="M46 12H18C17.4696 12 16.9609 11.7893 16.5858 11.4142C16.2107 11.0391 16 10.5304 16 10C16 9.46957 16.2107 8.96086 16.5858 8.58579C16.9609 8.21071 17.4696 8 18 8H46C46.5304 8 47.0391 8.21071 47.4142 8.58579C47.7893 8.96086 48 9.46957 48 10C48 10.5304 47.7893 11.0391 47.4142 11.4142C47.0391 11.7893 46.5304 12 46 12Z" fill="white"/>
<path d="M50 18H14C13.4696 18 12.9609 17.7893 12.5858 17.4142C12.2107 17.0391 12 16.5304 12 16C12 15.4696 12.2107 14.9609 12.5858 14.5858C12.9609 14.2107 13.4696 14 14 14H50C50.5304 14 51.0391 14.2107 51.4142 14.5858C51.7893 14.9609 52 15.4696 52 16C52 16.5304 51.7893 17.0391 51.4142 17.4142C51.0391 17.7893 50.5304 18 50 18Z" fill="white"/>
<path d="M52.3913 56H11.6088C10.1217 55.9983 8.69608 55.4069 7.64459 54.3554C6.59311 53.3039 6.00165 51.8783 6 50.3913V25.6087C6.00165 24.1217 6.59311 22.6961 7.64459 21.6446C8.69608 20.5931 10.1217 20.0017 11.6088 20H52.3913C53.8783 20.0017 55.3039 20.5931 56.3554 21.6446C57.4069 22.6961 57.9983 24.1217 58 25.6087V50.3913C57.9983 51.8783 57.4069 53.3039 56.3554 54.3554C55.3039 55.4069 53.8783 55.9983 52.3913 56Z" fill="white"/>
</svg>
